<?xml version="1.0" encoding="UTF-8" standalone="no"?>
<!-- Created with Inkscape (http://www.inkscape.org/) -->

<svg
   xmlns:dc="http://purl.org/dc/elements/1.1/"
   xmlns:cc="http://creativecommons.org/ns#"
   xmlns:rdf="http://www.w3.org/1999/02/22-rdf-syntax-ns#"
   xmlns:svg="http://www.w3.org/2000/svg"
   xmlns="http://www.w3.org/2000/svg"
   xmlns:sodipodi="http://sodipodi.sourceforge.net/DTD/sodipodi-0.dtd"
   xmlns:inkscape="http://www.inkscape.org/namespaces/inkscape"
   width="211.15901"
   height="190.52811"
   id="svg2"
   version="1.1"
   inkscape:version="0.48.5 r10040"
   sodipodi:docname="logo-lineart.svg">
  <defs
     id="defs4">
    <inkscape:perspective
       sodipodi:type="inkscape:persp3d"
       inkscape:vp_x="0 : 526.18109 : 1"
       inkscape:vp_y="0 : 1000 : 0"
       inkscape:vp_z="744.09448 : 526.18109 : 1"
       inkscape:persp3d-origin="372.04724 : 350.78739 : 1"
       id="perspective10" />
    <inkscape:perspective
       id="perspective2824"
       inkscape:persp3d-origin="0.5 : 0.33333333 : 1"
       inkscape:vp_z="1 : 0.5 : 1"
       inkscape:vp_y="0 : 1000 : 0"
       inkscape:vp_x="0 : 0.5 : 1"
       sodipodi:type="inkscape:persp3d" />
    <inkscape:perspective
       id="perspective2840"
       inkscape:persp3d-origin="0.5 : 0.33333333 : 1"
       inkscape:vp_z="1 : 0.5 : 1"
       inkscape:vp_y="0 : 1000 : 0"
       inkscape:vp_x="0 : 0.5 : 1"
       sodipodi:type="inkscape:persp3d" />
    <inkscape:perspective
       id="perspective2878"
       inkscape:persp3d-origin="0.5 : 0.33333333 : 1"
       inkscape:vp_z="1 : 0.5 : 1"
       inkscape:vp_y="0 : 1000 : 0"
       inkscape:vp_x="0 : 0.5 : 1"
       sodipodi:type="inkscape:persp3d" />
    <inkscape:perspective
       id="perspective2894"
       inkscape:persp3d-origin="0.5 : 0.33333333 : 1"
       inkscape:vp_z="1 : 0.5 : 1"
       inkscape:vp_y="0 : 1000 : 0"
       inkscape:vp_x="0 : 0.5 : 1"
       sodipodi:type="inkscape:persp3d" />
    <inkscape:perspective
       id="perspective2910"
       inkscape:persp3d-origin="0.5 : 0.33333333 : 1"
       inkscape:vp_z="1 : 0.5 : 1"
       inkscape:vp_y="0 : 1000 : 0"
       inkscape:vp_x="0 : 0.5 : 1"
       sodipodi:type="inkscape:persp3d" />
    <inkscape:perspective
       id="perspective2926"
       inkscape:persp3d-origin="0.5 : 0.33333333 : 1"
       inkscape:vp_z="1 : 0.5 : 1"
       inkscape:vp_y="0 : 1000 : 0"
       inkscape:vp_x="0 : 0.5 : 1"
       sodipodi:type="inkscape:persp3d" />
    <inkscape:perspective
       id="perspective2976"
       inkscape:persp3d-origin="0.5 : 0.33333333 : 1"
       inkscape:vp_z="1 : 0.5 : 1"
       inkscape:vp_y="0 : 1000 : 0"
       inkscape:vp_x="0 : 0.5 : 1"
       sodipodi:type="inkscape:persp3d" />
    <inkscape:perspective
       id="perspective3020"
       inkscape:persp3d-origin="0.5 : 0.33333333 : 1"
       inkscape:vp_z="1 : 0.5 : 1"
       inkscape:vp_y="0 : 1000 : 0"
       inkscape:vp_x="0 : 0.5 : 1"
       sodipodi:type="inkscape:persp3d" />
    <inkscape:perspective
       id="perspective3036"
       inkscape:persp3d-origin="0.5 : 0.33333333 : 1"
       inkscape:vp_z="1 : 0.5 : 1"
       inkscape:vp_y="0 : 1000 : 0"
       inkscape:vp_x="0 : 0.5 : 1"
       sodipodi:type="inkscape:persp3d" />
    <inkscape:perspective
       id="perspective3052"
       inkscape:persp3d-origin="0.5 : 0.33333333 : 1"
       inkscape:vp_z="1 : 0.5 : 1"
       inkscape:vp_y="0 : 1000 : 0"
       inkscape:vp_x="0 : 0.5 : 1"
       sodipodi:type="inkscape:persp3d" />
    <inkscape:perspective
       id="perspective3866"
       inkscape:persp3d-origin="0.5 : 0.33333333 : 1"
       inkscape:vp_z="1 : 0.5 : 1"
       inkscape:vp_y="0 : 1000 : 0"
       inkscape:vp_x="0 : 0.5 : 1"
       sodipodi:type="inkscape:persp3d" />
  </defs>
  <sodipodi:namedview
     id="base"
     pagecolor="#ffffff"
     bordercolor="#666666"
     borderopacity="1.0"
     inkscape:pageopacity="0.0"
     inkscape:pageshadow="2"
     inkscape:zoom="2.1723341"
     inkscape:cx="242.05817"
     inkscape:cy="92.686293"
     inkscape:document-units="px"
     inkscape:current-layer="layer1"
     showgrid="false"
     inkscape:window-width="1676"
     inkscape:window-height="1005"
     inkscape:window-x="4"
     inkscape:window-y="0"
     inkscape:window-maximized="1"
     fit-margin-top="10"
     fit-margin-left="10"
     fit-margin-right="10"
     fit-margin-bottom="10" />
  <metadata
     id="metadata7">
    <rdf:RDF>
      <cc:Work
         rdf:about="">
        <dc:format>image/svg+xml</dc:format>
        <dc:type
           rdf:resource="http://purl.org/dc/dcmitype/StillImage" />
        <dc:title></dc:title>
      </cc:Work>
    </rdf:RDF>
  </metadata>
  <g
     inkscape:label="Layer 1"
     inkscape:groupmode="layer"
     id="layer1"
     transform="translate(-29.820801,-20.186869)">
    <path
       style="fill:none;stroke:#000000;stroke-width:2;stroke-linecap:round;stroke-linejoin:round;stroke-miterlimit:4;stroke-opacity:1;stroke-dasharray:none"
       d="M 9.7525867,55.788422 C 40.421293,45.982204 33.821969,46.567748 69.327984,40.346648 c 8.493721,2.411576 22.910914,5.687215 22.240236,12.296506 -6.241933,2.320572 -15.351869,-6.455434 -20.254712,-1.539882 0.01014,18.421641 5.965221,38.200493 13.480678,55.747588 7.515457,17.5471 18.880714,32.86245 34.290034,42.35708 20.42595,12.66826 41.92048,14.9356 63.64846,15.65546 6.66858,0.23786 17.30912,-1.47838 20.01846,0 -4.9124,8.703 -19.28006,12.8118 -34.21844,14.71154 -14.93837,1.89974 -30.44747,1.59043 -37.64272,1.45723 -15.88921,-0.50065 -29.5942,-2.65111 -42.06658,-7.29048 C 56.640409,160.78176 38.428746,134.71246 24.668078,106.25832 16.765019,89.693325 11.290118,72.259923 9.7525867,55.788422 z"
       id="path3826"
       inkscape:connector-curvature="0"
       transform="translate(29.820801,20.186869)"
       sodipodi:nodetypes="ccccscccscccc" />
    <path
       style="fill:none;stroke:#000000;stroke-width:2;stroke-linecap:round;stroke-linejoin:round;stroke-miterlimit:4;stroke-opacity:1;stroke-dasharray:none"
       d="m 54.066806,32.351647 c -0.427165,0.87404 -0.384822,1.998232 -0.02834,2.90275 0.781834,1.983761 2.799883,3.252081 4.397491,4.681241 0.728446,0.651642 2.26934,0.803097 2.364296,1.769134 0.215279,2.190161 -2.700769,3.566537 -4.456242,4.921486 -1.316317,1.015991 -3.845581,0.776849 -4.451985,2.314219 -0.417515,1.058499 0.837317,2.10047 1.1679,3.188615 0.465799,1.533243 1.642442,3.150334 1.145997,4.674061 -0.597449,1.833868 -2.700081,2.84663 -4.420626,3.754433 -1.893115,0.998854 -4.450538,0.497797 -6.207667,1.715064 -1.674125,1.159765 -3.485979,2.907099 -3.554321,4.925579 -0.03097,0.915115 -0.384582,2.676814 -0.233936,3.114037 12.863193,-4.155671 20.195138,-6.507915 28.694286,-8.598094 8.499136,-2.090222 16.108852,-3.399531 29.579722,-5.689662 -0.06867,-0.457321 -1.197061,-1.855664 -1.647827,-2.652661 -0.994254,-1.75795 -3.408869,-2.469029 -5.429591,-2.722885 -2.120906,-0.26644 -4.15652,1.360749 -6.296964,1.350851 -1.945327,-0.009 -4.277958,0.06569 -5.655921,-1.283841 -1.144955,-1.121286 -0.849755,-3.099246 -1.145997,-4.674061 -0.210243,-1.117649 0.420309,-2.621884 -0.439473,-3.367212 -1.248754,-1.082519 -3.380554,0.299434 -5.017542,0.0075 -2.183125,-0.389274 -5.405114,-0.260713 -6.227327,-2.302063 -0.362663,-0.900401 0.93342,-1.747432 1.277831,-2.662119 0.75535,-2.006065 1.957858,-4.064009 1.733419,-6.184432 -0.102333,-0.966833 -0.5848,-1.983113 -1.367813,-2.56044 -1.68203,-1.191313 -4.366912,-1.323763 -7.531636,-0.525881 -3.164723,0.797885 -5.342193,2.137743 -6.247739,3.90434 z"
       id="path3832"
       inkscape:connector-curvature="0"
       sodipodi:nodetypes="csssssscssscccssscssssssccc" />
    <path
       style="fill:none;stroke:#000000;stroke-width:2;stroke-linecap:butt;stroke-linejoin:miter;stroke-miterlimit:4;stroke-opacity:1;stroke-dasharray:none"
       d="m 71.836704,50.617573 c 0,0 -24.55635,5.277975 -35.918352,8.551988 C 27.8621,61.491007 12.143824,67.37947 12.143824,67.37947"
       id="path3847"
       inkscape:connector-curvature="0"
       transform="translate(29.820801,20.186869)"
       sodipodi:nodetypes="csc" />
  </g>
</svg>
