<?xml version="1.0" encoding="UTF-8" standalone="no"?><!DOCTYPE svg PUBLIC "-//W3C//DTD SVG 1.1//EN" "http://www.w3.org/Graphics/SVG/1.1/DTD/svg11.dtd"><svg width="100%" height="100%" viewBox="0 0 837 271" version="1.1" xmlns="http://www.w3.org/2000/svg" xmlns:xlink="http://www.w3.org/1999/xlink" xml:space="preserve" xmlns:serif="http://www.serif.com/" style="fill-rule:evenodd;clip-rule:evenodd;stroke-linejoin:round;stroke-miterlimit:2;"><g><path d="M836.185,207.654l-31.2,-0l-30,-40.4l-11.4,16.2l-0,24.2l-26,-0l-0,-150.4l26,-0l-0,95l36.4,-54.2l29.4,-0l-37.4,51.2l44.2,58.4Z" style="fill:#423c3c;fill-rule:nonzero;"/><path d="M706.186,176.054l0,3c-0.8,10 -5.034,17.534 -12.7,22.6c-7.669,5.068 -17.235,7.599 -28.7,7.599c-16.934,0 -28.8,-3.065 -35.6,-9.199c-6.269,-5.601 -9.4,-13.866 -9.4,-24.801l0,-2.399l23.6,0c0,6.134 1.6,10.334 4.8,12.599c3.2,2.269 8.731,3.401 16.6,3.401c10.666,0 16,-3.866 16,-11.601c0,-6.399 -1.869,-10.665 -5.6,-12.8c-1.734,-1.065 -3.935,-1.865 -6.6,-2.399l-20.2,-3.4c-17.6,-2.8 -26.4,-13.8 -26.4,-33c0,-10.666 3.9,-18.966 11.7,-24.9c7.8,-5.931 17.7,-8.9 29.7,-8.9c27.331,0 41,11.8 41,35.399l0,2.601l-22.6,0c-0.269,-6.266 -1.934,-10.531 -5,-12.8c-3.069,-2.266 -7.369,-3.4 -12.9,-3.4c-5.534,0 -9.7,1.1 -12.5,3.299c-2.8,2.201 -4.2,4.635 -4.2,7.301c0,7.6 3.065,11.934 9.2,12.999l24.2,4.401c17.066,3.2 25.6,14.669 25.6,34.4Z" style="fill:#423c3c;fill-rule:nonzero;"/><path d="M589.587,207.653l-17.4,0l-8,-13.799l-27.8,15c-15.469,0 -25.869,-5.601 -31.2,-16.8c-5.674,-11.495 -6.886,-24.46 -7,-37.5c0.077,-12.551 -0.096,-15.688 1.2,-26.601c1.063,-8.338 2.543,-13.08 6.599,-20c6.414,-10.446 16.898,-13.434 30.2,-13.7l27.401,0l26,-1.6l-0,115Zm-26,-36.4l-0,-53.6l-19.8,0c-7.335,0 -12.434,2.8 -15.301,8.401c-2.868,5.599 -4.299,13.969 -4.299,25.099c0.491,17.986 1.453,30.212 19.6,30.3l19.8,-10.2Z" style="fill:#423c3c;fill-rule:nonzero;"/><path d="M472.986,207.654l0,-150.4l-26,-0l0,150.6l26,-0.2Z" style="fill:#423c3c;fill-rule:nonzero;"/><path d="M415.788,90.054l-50.2,-0c-5.869,-0 -9.969,1.134 -12.3,3.4c-2.335,2.269 -3.5,6.2 -3.5,11.8l0,19.8l52.199,-0l-2,24.8l-50.199,-0l0,57.8l-27.801,-0l0,-113.4c0,-10.531 2.301,-18 6.901,-22.4c4.599,-4.4 12.5,-6.6 23.7,-6.6l63.2,-0l0,24.8Z" style="fill:#423c3c;fill-rule:nonzero;"/></g><g><path d="M21.582,0c-11.92,0 -21.582,9.662 -21.582,21.582l0,227.388c0,11.92 9.662,21.582 21.582,21.582l227.388,0c11.919,0 21.581,-9.662 21.581,-21.582l0,-227.388c0,-11.92 -9.662,-21.582 -21.581,-21.582l-227.388,0Z" style="fill:url(#_Linear1);fill-rule:nonzero;"/><g><path d="M107.796,182.021c7.941,7.2 17.307,13.396 28.291,17.531c17.529,6.6 39.223,8.015 65.851,-0.259l63.558,63.558c-3.959,4.709 -9.893,7.701 -16.526,7.701l-52.642,-0l-88.532,-88.531Z" style="fill:#006e85;"/><path d="M114.515,187.591c5.415,4.088 11.401,7.68 18.002,10.521c1.17,0.504 2.36,0.985 3.57,1.44c18.29,6.886 41.115,8.128 69.348,-1.392c2.953,-0.996 5.966,-2.11 9.038,-3.347l0.176,0.919c0.161,1.034 1.396,2.116 3.082,1.458l0.928,-0.362l51.892,51.892l0,0.25c0,4.095 -1.14,7.924 -3.121,11.186c-3.784,6.232 -10.636,10.396 -18.46,10.396l-51.494,0l-82.961,-82.961Z" style="fill:#006e85;"/><path d="M94.529,167.605l53.228,-27.123c-1.149,-2.976 -2.274,-6.21 -6.104,-20.661l64.142,64.143c-4.92,0.04 -10.663,-0.471 -16.692,-2.136c-6.304,-1.741 -12.919,-4.744 -19.231,-9.701c-6.756,-5.297 -13.103,-12.802 -18.389,-23.288l-50.159,25.561l-6.795,-6.795Z" style="fill:#006e85;"/><path d="M209.123,270.552l-69.885,-69.885c4.914,1.628 10.142,2.851 15.698,3.577c16.726,2.187 36.43,-0.127 59.537,-9.431l0.176,0.919c0.161,1.034 1.396,2.116 3.082,1.458l5.388,-2.105c0.349,-0.132 0.633,-0.29 0.861,-0.466c0.979,-0.753 0.946,-1.828 0.726,-2.574l6.935,-2.71c0.781,-0.298 3.196,-2.165 1.12,-5.106l-4.268,-6.521c-0.637,-0.714 -1.628,-0.98 -2.504,-0.627l-5.483,2.113c-0.645,-0.717 -1.595,-0.985 -2.511,-0.63l-5.38,2.108c-0.581,0.222 -0.738,0.655 -0.631,1.207l0.346,1.706c-10.105,1.093 -27.17,0.547 -42.458,-11.458c-6.756,-5.297 -13.103,-12.802 -18.389,-23.288l-42.443,21.629l-6.795,-6.795l45.512,-23.191c-1.149,-2.976 -2.274,-6.21 -6.104,-20.661l-57.52,25.74l-6.926,-6.925l62.722,-28.068c-0.905,-8.138 -3.363,-31.522 -3.261,-42.032l133.883,133.883l0,46.551c0,11.92 -9.662,21.582 -21.581,21.582l-39.847,0Z" style="fill:#006e85;"/><path d="M64.701,114.03c0.757,0.48 1.868,0.51 2.999,0.02l0.441,-0.188c0.371,1.555 0.789,3.188 1.252,4.86l-4.692,-4.692Z" style="fill:#006e85;"/></g><g><path d="M136.668,68.536c-0.102,10.51 2.356,33.894 3.261,42.032l-62.722,28.068c-4.11,-7.033 -7.182,-16.89 -9.066,-24.774l-0.441,0.188c-1.507,0.654 -2.978,0.383 -3.624,-0.645l-0.081,-0.129l-6.01,-11.041c-0.423,-0.77 -0.361,-1.855 0.177,-2.87c0.538,-1.016 1.552,-1.963 2.621,-2.43l72.002,-30.834c1.069,-0.467 2.19,-0.456 2.93,0.031c0.78,0.455 0.932,0.948 0.953,2.404Z" style="fill:#fff;fill-rule:nonzero;"/><path d="M141.653,119.821l-60.399,27.029c3.55,6.726 7.933,13.868 13.275,20.755l53.228,-27.123c-1.149,-2.976 -2.274,-6.21 -6.104,-20.661Z" style="fill:#fff;fill-rule:nonzero;"/><path d="M100.563,174.788l50.92,-25.949c5.286,10.486 11.633,17.991 18.389,23.288c15.288,12.005 32.353,12.551 42.458,11.458l-0.346,-1.706c-0.107,-0.552 0.05,-0.985 0.631,-1.207l5.38,-2.108c0.916,-0.355 1.866,-0.087 2.511,0.63l5.483,-2.113c0.876,-0.353 1.867,-0.087 2.504,0.627l4.268,6.521c2.076,2.941 -0.339,4.808 -1.12,5.106l-6.935,2.71c0.271,0.92 0.259,2.341 -1.587,3.04l-5.388,2.105c-1.686,0.658 -2.921,-0.424 -3.082,-1.458l-0.176,-0.919c-32.446,13.065 -58.183,12.346 -78.386,4.739c-14.521,-5.466 -26.214,-14.534 -35.524,-24.764Z" style="fill:#fff;fill-rule:nonzero;"/></g></g><defs><linearGradient id="_Linear1" x1="0" y1="0" x2="1" y2="0" gradientUnits="userSpaceOnUse" gradientTransform="matrix(1.62093e-14,270.552,-270.552,1.62093e-14,135.276,-1.58096e-13)"><stop offset="0" style="stop-color:#b0deec;stop-opacity:1"/><stop offset="1" style="stop-color:#00abd4;stop-opacity:1"/></linearGradient></defs></svg>
