<?xml version="1.0" encoding="UTF-8" standalone="no"?><!DOCTYPE svg PUBLIC "-//W3C//DTD SVG 1.1//EN" "http://www.w3.org/Graphics/SVG/1.1/DTD/svg11.dtd"><svg width="100%" height="100%" viewBox="0 0 367 538" version="1.1" xmlns="http://www.w3.org/2000/svg" xmlns:xlink="http://www.w3.org/1999/xlink" xml:space="preserve" xmlns:serif="http://www.serif.com/" style="fill-rule:evenodd;clip-rule:evenodd;stroke-linejoin:round;stroke-miterlimit:2;"><g id="Layer-1" serif:id="Layer 1"><g><path d="M366.944,536.805l-22.265,-0l-21.409,-28.831l-8.135,11.561l0,17.27l-18.554,-0l0,-107.329l18.554,-0l0,67.793l25.976,-38.678l20.98,0l-26.689,36.537l31.542,41.677Z" style="fill:#1c1c1a;fill-rule:nonzero;"/><path d="M274.174,514.254l0,2.141c-0.571,7.136 -3.592,12.513 -9.063,16.128c-5.473,3.617 -12.299,5.423 -20.481,5.423c-12.084,0 -20.553,-2.188 -25.405,-6.565c-4.474,-3.997 -6.708,-9.895 -6.708,-17.698l-0,-1.712l16.841,-0c0,4.377 1.142,7.374 3.426,8.991c2.284,1.619 6.231,2.427 11.846,2.427c7.611,-0 11.418,-2.759 11.418,-8.279c0,-4.567 -1.334,-7.611 -3.996,-9.134c-1.238,-0.76 -2.808,-1.331 -4.71,-1.712l-14.415,-2.427c-12.561,-1.998 -18.84,-9.848 -18.84,-23.55c-0,-7.611 2.783,-13.535 8.349,-17.769c5.566,-4.233 12.632,-6.351 21.195,-6.351c19.505,-0 29.259,8.42 29.259,25.262l-0,1.855l-16.128,0c-0.193,-4.471 -1.381,-7.515 -3.569,-9.134c-2.19,-1.617 -5.258,-2.426 -9.205,-2.426c-3.95,-0 -6.922,0.785 -8.92,2.354c-1.998,1.57 -2.998,3.308 -2.998,5.21c0,5.424 2.188,8.517 6.566,9.277l17.27,3.14c12.178,2.284 18.268,10.468 18.268,24.549Z" style="fill:#1c1c1a;fill-rule:nonzero;"/><path d="M190.966,536.805l-12.418,-0l-5.709,-9.848l-19.839,10.704c-11.038,0 -18.46,-3.997 -22.265,-11.989c-4.049,-8.202 -4.913,-17.455 -4.995,-26.761c0.055,-8.956 -0.068,-11.195 0.857,-18.982c0.758,-5.951 1.814,-9.335 4.709,-14.273c4.577,-7.455 12.059,-9.587 21.552,-9.776l19.553,-0l18.555,-1.142l-0,82.067Zm-18.555,-25.977l0,-38.25l-14.129,-0c-5.234,-0 -8.874,1.998 -10.919,5.995c-2.047,3.996 -3.069,9.968 -3.069,17.912c0.351,12.834 1.037,21.559 13.988,21.623l14.129,-7.28Z" style="fill:#1c1c1a;fill-rule:nonzero;"/><path d="M107.757,536.805l-0,-107.329l-18.555,-0l0,107.471l18.555,-0.142Z" style="fill:#1c1c1a;fill-rule:nonzero;"/><path d="M66.938,452.882l-35.824,0c-4.188,0 -7.114,0.81 -8.777,2.426c-1.667,1.62 -2.498,4.425 -2.498,8.421l0,14.13l37.251,0l-1.427,17.698l-35.824,-0l0,41.248l-19.839,-0l-0,-80.925c-0,-7.516 1.641,-12.846 4.924,-15.986c3.283,-3.14 8.92,-4.709 16.913,-4.709l45.101,-0l0,17.697Z" style="fill:#1c1c1a;fill-rule:nonzero;"/></g><g><path d="M29.271,0c-16.166,0 -29.271,13.105 -29.271,29.271l0,308.405c0,16.166 13.105,29.271 29.271,29.271l308.404,0c16.166,0 29.271,-13.105 29.271,-29.271l0,-308.405c0,-16.166 -13.105,-29.271 -29.271,-29.271l-308.404,0Z" style="fill:url(#_Linear1);fill-rule:nonzero;"/><g><path d="M92.417,154.425c0.515,2.17 1.099,4.449 1.75,6.781l-6.755,-6.754l0.041,-0.027c1.004,0.868 2.672,1.004 4.367,0.258l0.597,-0.258Z" style="fill:#00818d;fill-rule:nonzero;"/><path d="M366.944,272.652l-0,64.93c-0,16.215 -13.145,29.359 -29.36,29.359l-71.846,0l-120.276,-120.764c3.865,3.581 7.989,6.958 12.369,10.105c8.002,5.737 16.9,10.66 26.746,14.363c27.397,10.321 62.308,11.298 106.306,-6.415l0.244,1.234c0.217,1.41 1.899,2.875 4.178,1.98l7.31,-2.848c2.509,-0.95 2.523,-2.876 2.157,-4.123l9.399,-3.676c1.058,-0.407 4.34,-2.943 1.519,-6.931l-5.792,-8.843c-0.854,-0.963 -2.197,-1.329 -3.39,-0.854l-7.433,2.875c-0.881,-0.976 -2.17,-1.343 -3.418,-0.854c-2.427,0.949 -4.855,1.899 -7.296,2.848c-0.787,0.312 -0.99,0.895 -0.855,1.641l0.475,2.319c-13.699,1.479 -36.85,0.733 -57.588,-15.543c-9.155,-7.188 -17.768,-17.36 -24.942,-31.588l-68.032,34.667l-9.209,-9.209c24.061,-12.261 48.121,-24.522 72.195,-36.796c-1.56,-4.028 -3.092,-8.423 -8.287,-28.021l-78.013,34.911l-9.386,-9.386l85.066,-38.071c-1.234,-11.04 -4.557,-42.75 -4.421,-57.005c-0.014,-1.451 -0.136,-2.197 -0.61,-2.726l182.19,182.421Z" style="fill:#006e85;fill-rule:nonzero;"/></g><g><path d="M185.361,92.954c-0.138,14.255 3.196,45.97 4.423,57.008l-85.069,38.068c-5.574,-9.538 -9.741,-22.908 -12.297,-33.6l-0.597,0.254c-2.045,0.887 -4.039,0.52 -4.916,-0.874l-0.109,-0.175l-8.152,-14.975c-0.573,-1.045 -0.49,-2.516 0.24,-3.893c0.73,-1.378 2.106,-2.661 3.555,-3.295l97.656,-41.82c1.449,-0.634 2.97,-0.618 3.973,0.042c1.059,0.617 1.265,1.285 1.293,3.26Z" style="fill:#fff;fill-rule:nonzero;"/><path d="M192.122,162.513l-81.918,36.658c4.815,9.123 10.759,18.809 18.004,28.15l72.193,-36.786c-1.558,-4.037 -3.084,-8.423 -8.279,-28.022Z" style="fill:#fff;fill-rule:nonzero;"/><path d="M136.393,237.063l69.062,-35.195c7.169,14.223 15.778,24.401 24.94,31.586c20.736,16.282 43.881,17.023 57.586,15.54l-0.469,-2.314c-0.146,-0.748 0.067,-1.335 0.855,-1.636l7.297,-2.86c1.243,-0.481 2.531,-0.118 3.406,0.855l7.437,-2.866c1.188,-0.479 2.531,-0.118 3.395,0.85l5.789,8.844c2.816,3.989 -0.459,6.522 -1.519,6.926l-9.406,3.675c0.368,1.248 0.351,3.175 -2.152,4.124l-7.308,2.855c-2.286,0.892 -3.962,-0.575 -4.18,-1.978l-0.238,-1.246c-44.007,17.719 -78.913,16.744 -106.315,6.427c-19.694,-7.414 -35.554,-19.712 -48.18,-33.587Z" style="fill:#fff;fill-rule:nonzero;"/></g></g></g><defs><linearGradient id="_Linear1" x1="0" y1="0" x2="1" y2="0" gradientUnits="userSpaceOnUse" gradientTransform="matrix(2.16376,367.062,-367.062,2.16376,182.42,4.94383)"><stop offset="0" style="stop-color:#b0deec;stop-opacity:1"/><stop offset="0.99" style="stop-color:#00abd4;stop-opacity:1"/><stop offset="1" style="stop-color:#00adc5;stop-opacity:1"/></linearGradient></defs></svg>
