<?xml version="1.0" encoding="UTF-8" standalone="no"?><!DOCTYPE svg PUBLIC "-//W3C//DTD SVG 1.1//EN" "http://www.w3.org/Graphics/SVG/1.1/DTD/svg11.dtd"><svg width="100%" height="100%" viewBox="0 0 367 538" version="1.1" xmlns="http://www.w3.org/2000/svg" xmlns:xlink="http://www.w3.org/1999/xlink" xml:space="preserve" xmlns:serif="http://www.serif.com/" style="fill-rule:evenodd;clip-rule:evenodd;stroke-linejoin:round;stroke-miterlimit:2;"><g><path d="M366.944,536.805l-22.265,-0l-21.409,-28.831l-8.135,11.561l0,17.27l-18.554,-0l0,-107.329l18.554,-0l0,67.793l25.976,-38.678l20.98,0l-26.689,36.537l31.542,41.677Z" style="fill:#1c1c1a;fill-rule:nonzero;"/><path d="M274.174,514.254l0,2.141c-0.571,7.136 -3.592,12.513 -9.063,16.128c-5.473,3.617 -12.299,5.423 -20.481,5.423c-12.084,0 -20.553,-2.188 -25.405,-6.565c-4.474,-3.997 -6.708,-9.895 -6.708,-17.698l-0,-1.712l16.841,-0c0,4.377 1.142,7.374 3.426,8.991c2.284,1.619 6.231,2.427 11.846,2.427c7.611,-0 11.418,-2.759 11.418,-8.279c0,-4.567 -1.334,-7.611 -3.996,-9.134c-1.238,-0.76 -2.808,-1.331 -4.71,-1.712l-14.415,-2.427c-12.561,-1.998 -18.84,-9.848 -18.84,-23.55c-0,-7.611 2.783,-13.535 8.349,-17.769c5.566,-4.233 12.632,-6.351 21.195,-6.351c19.505,-0 29.259,8.42 29.259,25.262l-0,1.855l-16.128,0c-0.193,-4.471 -1.381,-7.515 -3.569,-9.134c-2.19,-1.617 -5.258,-2.426 -9.205,-2.426c-3.95,-0 -6.922,0.785 -8.92,2.354c-1.998,1.57 -2.998,3.308 -2.998,5.21c0,5.424 2.188,8.517 6.566,9.277l17.27,3.14c12.178,2.284 18.268,10.468 18.268,24.549Z" style="fill:#1c1c1a;fill-rule:nonzero;"/><path d="M190.966,536.805l-12.418,-0l-5.709,-9.848l-19.839,10.704c-11.038,0 -18.46,-3.997 -22.265,-11.989c-4.049,-8.202 -4.913,-17.455 -4.995,-26.761c0.055,-8.956 -0.068,-11.195 0.857,-18.982c0.758,-5.951 1.814,-9.335 4.709,-14.273c4.577,-7.455 12.059,-9.587 21.552,-9.776l19.553,-0l18.555,-1.142l-0,82.067Zm-18.555,-25.977l0,-38.25l-14.129,-0c-5.234,-0 -8.874,1.998 -10.919,5.995c-2.047,3.996 -3.069,9.968 -3.069,17.912c0.351,12.834 1.037,21.559 13.988,21.623l14.129,-7.28Z" style="fill:#1c1c1a;fill-rule:nonzero;"/><path d="M107.757,536.805l-0,-107.329l-18.555,-0l0,107.471l18.555,-0.142Z" style="fill:#1c1c1a;fill-rule:nonzero;"/><path d="M66.938,452.882l-35.824,0c-4.188,0 -7.114,0.81 -8.777,2.426c-1.667,1.62 -2.498,4.425 -2.498,8.421l0,14.13l37.251,0l-1.427,17.698l-35.824,-0l0,41.248l-19.839,-0l0,-80.925c0,-7.516 1.641,-12.846 4.924,-15.986c3.283,-3.14 8.92,-4.709 16.913,-4.709l45.101,-0l0,17.697Z" style="fill:#1c1c1a;fill-rule:nonzero;"/></g><g><path d="M29.271,0c-16.166,0 -29.271,13.105 -29.271,29.271l0,308.405c0,16.166 13.105,29.271 29.271,29.271l308.404,0c16.166,0 29.271,-13.105 29.271,-29.271l0,-308.405c0,-16.166 -13.105,-29.271 -29.271,-29.271l-308.404,0Z" style="fill:url(#_Linear1);fill-rule:nonzero;"/><g><path d="M146.203,246.873c10.769,9.766 23.473,18.169 38.37,23.777c23.775,8.952 53.198,10.87 89.313,-0.351l86.203,86.203c-5.369,6.386 -13.418,10.445 -22.414,10.445l-71.398,-0l-120.074,-120.074Z" style="fill:#006e85;"/><path d="M155.315,254.428c7.345,5.545 15.463,10.416 24.416,14.27c1.588,0.683 3.202,1.335 4.842,1.952c24.807,9.34 55.764,11.024 94.056,-1.888c4.006,-1.35 8.092,-2.861 12.259,-4.539l0.238,1.246c0.218,1.403 1.894,2.87 4.18,1.978l1.259,-0.491l70.381,70.38l-0,0.34c-0,5.554 -1.547,10.746 -4.233,15.17c-5.133,8.454 -14.426,14.101 -25.038,14.101l-69.841,-0l-112.519,-112.519Z" style="fill:#006e85;"/><path d="M128.208,227.321l72.193,-36.786c-1.558,-4.037 -3.084,-8.423 -8.279,-28.022l86.996,86.995c-6.673,0.054 -14.463,-0.638 -22.64,-2.897c-8.549,-2.361 -17.521,-6.434 -26.083,-13.157c-9.162,-7.185 -17.771,-17.363 -24.94,-31.586l-68.03,34.669l-9.217,-9.216Z" style="fill:#006e85;"/><path d="M283.632,366.947l-94.785,-94.785c6.666,2.208 13.755,3.867 21.291,4.852c22.685,2.966 49.41,-0.172 80.75,-12.791l0.238,1.246c0.218,1.403 1.894,2.87 4.18,1.978l7.308,-2.855c0.474,-0.179 0.858,-0.394 1.168,-0.632c1.328,-1.021 1.283,-2.48 0.984,-3.492l9.406,-3.675c1.06,-0.404 4.335,-2.937 1.519,-6.926l-5.789,-8.844c-0.864,-0.968 -2.207,-1.329 -3.395,-0.85l-7.437,2.866c-0.875,-0.973 -2.163,-1.336 -3.406,-0.855l-7.297,2.86c-0.788,0.301 -1.001,0.888 -0.855,1.636l0.469,2.314c-13.705,1.483 -36.85,0.742 -57.586,-15.54c-9.162,-7.185 -17.771,-17.363 -24.94,-31.586l-57.566,29.336l-9.216,-9.216l61.728,-31.453c-1.558,-4.037 -3.084,-8.423 -8.279,-28.022l-78.013,34.91l-9.394,-9.393l85.069,-38.068c-1.227,-11.038 -4.561,-42.753 -4.423,-57.008l181.585,181.585l-0,63.137c-0,16.166 -13.105,29.271 -29.271,29.271l-54.043,-0Z" style="fill:#006e85;"/><path d="M87.753,154.658c1.027,0.651 2.533,0.692 4.068,0.026l0.597,-0.254c0.505,2.11 1.072,4.323 1.7,6.591l-6.365,-6.363Z" style="fill:#006e85;"/></g><g><path d="M185.361,92.954c-0.138,14.255 3.196,45.97 4.423,57.008l-85.069,38.068c-5.574,-9.538 -9.741,-22.908 -12.297,-33.6l-0.597,0.254c-2.045,0.887 -4.039,0.52 -4.916,-0.874l-0.109,-0.175l-8.152,-14.975c-0.573,-1.045 -0.49,-2.516 0.24,-3.893c0.73,-1.378 2.106,-2.661 3.555,-3.295l97.656,-41.82c1.449,-0.634 2.97,-0.618 3.973,0.042c1.059,0.617 1.265,1.285 1.293,3.26Z" style="fill:#fff;fill-rule:nonzero;"/><path d="M192.122,162.513l-81.918,36.658c4.815,9.123 10.759,18.809 18.004,28.15l72.193,-36.786c-1.558,-4.037 -3.084,-8.423 -8.279,-28.022Z" style="fill:#fff;fill-rule:nonzero;"/><path d="M136.393,237.063l69.062,-35.195c7.169,14.223 15.778,24.401 24.94,31.586c20.736,16.282 43.881,17.023 57.586,15.54l-0.469,-2.314c-0.146,-0.748 0.067,-1.335 0.855,-1.636l7.297,-2.86c1.243,-0.481 2.531,-0.118 3.406,0.855l7.437,-2.866c1.188,-0.479 2.531,-0.118 3.395,0.85l5.789,8.844c2.816,3.989 -0.459,6.522 -1.519,6.926l-9.406,3.675c0.368,1.248 0.351,3.175 -2.152,4.124l-7.308,2.855c-2.286,0.892 -3.962,-0.575 -4.18,-1.978l-0.238,-1.246c-44.007,17.719 -78.913,16.744 -106.315,6.427c-19.694,-7.414 -35.554,-19.712 -48.18,-33.587Z" style="fill:#fff;fill-rule:nonzero;"/></g></g><defs><linearGradient id="_Linear1" x1="0" y1="0" x2="1" y2="0" gradientUnits="userSpaceOnUse" gradientTransform="matrix(2.26485e-14,366.947,-366.947,2.26485e-14,183.472,1.06581e-14)"><stop offset="0" style="stop-color:#b0deec;stop-opacity:1"/><stop offset="1" style="stop-color:#00abd4;stop-opacity:1"/></linearGradient></defs></svg>
