<?xml version="1.0" encoding="UTF-8" standalone="no"?>
<!DOCTYPE svg PUBLIC "-//W3C//DTD SVG 1.1//EN" "http://www.w3.org/Graphics/SVG/1.1/DTD/svg11.dtd">
<svg width="100%" height="100%" viewBox="0 0 500 500" version="1.1" xmlns="http://www.w3.org/2000/svg" xmlns:xlink="http://www.w3.org/1999/xlink" xml:space="preserve" xmlns:serif="http://www.serif.com/" style="fill-rule:evenodd;clip-rule:evenodd;stroke-linejoin:round;stroke-miterlimit:2;">
    <rect id="Logo" x="0" y="0" width="500" height="500" style="fill:none;"/>
    <g>
        <path id="Box" d="M500,50l0,400c0,27.596 -22.404,50 -50,50l-400,0c-27.596,0 -50,-22.404 -50,-50l0,-400c0,-27.596 22.404,-50 50,-50l400,0c27.596,0 50,22.404 50,50Z" style="fill:url(#_Linear1);"/>
        <path id="Shadow" d="M500,398.646l0,51.354c0,27.596 -22.404,50 -50,50l-94.111,0l-170.452,-170.451c13.541,12.279 29.511,22.845 48.242,29.888c34.453,12.98 78.356,14.208 133.703,-8.084l0.307,1.569c0.273,1.757 2.388,3.616 5.253,2.49l9.193,-3.582c3.156,-1.194 3.173,-3.616 2.712,-5.185l11.837,-4.622c1.331,-0.512 5.458,-3.701 1.91,-8.716l-0.034,0l-7.283,-11.12c-1.091,-1.211 -2.78,-1.672 -4.264,-1.075l-9.346,3.599c-1.109,-1.228 -2.712,-1.688 -4.281,-1.074c-3.054,1.194 -6.124,2.404 -9.177,3.598c-0.989,0.376 -1.262,1.109 -1.074,2.064l0.597,2.917c-17.227,1.859 -46.342,0.938 -72.421,-19.547c-11.53,-9.039 -22.343,-21.831 -31.366,-39.723l-83.923,42.769l-13.246,-10.755c30.258,-15.419 60.532,-30.837 90.79,-46.256c-1.961,-5.083 -3.872,-10.592 -10.404,-35.238l-98.082,43.893l-11.828,-11.828l106.976,-47.876c-1.534,-13.88 -5.728,-53.736 -5.56,-71.67l-0,-0.017c-0.027,-1.894 -0.184,-2.827 -0.85,-3.504l266.182,266.182Zm-388.562,-185.436c1.272,1.164 3.414,1.356 5.594,0.397l0.75,-0.324c0.645,2.703 1.373,5.543 2.181,8.452l-8.525,-8.525Z" style="fill:#3b808b;"/>
        <g id="Icon">
            <path d="M234.668,135.985c-0.034,-2.49 -0.29,-3.326 -1.62,-4.094c-1.263,-0.835 -3.173,-0.852 -4.998,-0.051l-122.804,52.584c-1.825,0.802 -3.548,2.405 -4.469,4.145c-0.921,1.74 -1.023,3.582 -0.307,4.895l10.251,18.83l0.136,0.222c1.109,1.757 3.616,2.217 6.175,1.091l0.75,-0.324c3.207,13.441 8.46,30.258 15.47,42.248l106.976,-47.876c-1.535,-13.884 -5.731,-53.761 -5.56,-71.687l-0,0.017Z" style="fill:#fff;fill-rule:nonzero;"/>
            <path d="M243.162,223.466l-103.019,46.103c6.055,11.478 13.525,23.656 22.633,35.391c30.258,-15.419 60.532,-30.837 90.79,-46.256c-1.961,-5.083 -3.872,-10.592 -10.404,-35.238Z" style="fill:#fff;fill-rule:nonzero;"/>
            <path d="M398.56,333.307l-7.283,-11.12c-1.091,-1.211 -2.78,-1.672 -4.264,-1.075l-9.346,3.599c-1.109,-1.228 -2.712,-1.688 -4.281,-1.074c-3.054,1.194 -6.124,2.404 -9.177,3.598c-0.989,0.376 -1.262,1.109 -1.074,2.064l0.597,2.917c-17.227,1.859 -46.342,0.938 -72.421,-19.547c-11.53,-9.039 -22.343,-21.831 -31.366,-39.723l-86.85,44.26c15.879,17.449 35.818,32.919 60.584,42.231c34.453,12.98 78.356,14.208 133.703,-8.084l0.307,1.569c0.273,1.757 2.388,3.616 5.253,2.49l9.193,-3.582c3.156,-1.194 3.173,-3.616 2.712,-5.185l11.837,-4.622c1.331,-0.512 5.458,-3.701 1.91,-8.716l-0.034,0Z" style="fill:#fff;fill-rule:nonzero;"/>
        </g>
    </g>
    <defs>
        <linearGradient id="_Linear1" x1="0" y1="0" x2="1" y2="0" gradientUnits="userSpaceOnUse" gradientTransform="matrix(3.06162e-14,500,-500,3.06162e-14,267.59,0)"><stop offset="0" style="stop-color:#bdddeb;stop-opacity:1"/><stop offset="1" style="stop-color:#53a9d1;stop-opacity:1"/></linearGradient>
    </defs>
</svg>
