<?xml version="1.0" encoding="UTF-8" standalone="no"?>
<!DOCTYPE svg PUBLIC "-//W3C//DTD SVG 1.1//EN" "http://www.w3.org/Graphics/SVG/1.1/DTD/svg11.dtd">
<svg width="100%" height="100%" viewBox="0 0 706 300" version="1.1" xmlns="http://www.w3.org/2000/svg" xmlns:xlink="http://www.w3.org/1999/xlink" xml:space="preserve" xmlns:serif="http://www.serif.com/" style="fill-rule:evenodd;clip-rule:evenodd;stroke-linejoin:round;stroke-miterlimit:2;">
    <g>
        <path id="Name" d="M420.35,117.6l-37.65,-0c-4.4,-0 -7.475,0.85 -9.225,2.55c-1.75,1.7 -2.625,4.65 -2.625,8.85l-0,14.85l39.15,-0l-1.5,18.6l-37.65,-0l-0,43.35l-20.85,-0l-0,-85.05c-0,-7.9 1.725,-13.5 5.175,-16.8c3.45,-3.3 9.375,-4.95 17.775,-4.95l47.4,-0l0,18.6Z" style="fill-rule:nonzero;"/>
        <path d="M455.75,205.8l-19.5,0.15l-0,-112.95l19.5,-0l-0,112.8Z" style="fill-rule:nonzero;"/>
        <path d="M535.7,205.8l-13.05,-0l-6,-10.35l-20.85,11.25c-11.6,-0 -19.4,-4.2 -23.4,-12.6c-2,-4.1 -3.375,-8.525 -4.125,-13.275c-0.75,-4.75 -1.125,-9.7 -1.125,-14.85c-0,-5.15 0.05,-8.95 0.15,-11.4c0.1,-2.45 0.35,-5.3 0.75,-8.55c0.4,-3.25 0.975,-5.975 1.725,-8.175c0.75,-2.2 1.825,-4.475 3.225,-6.825c1.4,-2.35 3.1,-4.225 5.1,-5.625c4.5,-3.1 10.35,-4.65 17.55,-4.65l20.55,-0l19.5,-1.2l-0,86.25Zm-19.5,-27.3l-0,-40.2l-14.85,-0c-5.5,-0 -9.325,2.1 -11.475,6.3c-2.15,4.2 -3.225,10.475 -3.225,18.825c-0,8.35 1.025,14.225 3.075,17.625c2.05,3.4 5.925,5.1 11.625,5.1l14.85,-7.65Z" style="fill-rule:nonzero;"/>
        <path d="M615.65,182.1l0,2.25c-0.6,7.5 -3.775,13.15 -9.525,16.95c-5.75,3.8 -12.925,5.7 -21.525,5.7c-12.7,-0 -21.6,-2.3 -26.7,-6.9c-4.7,-4.2 -7.05,-10.4 -7.05,-18.6l0,-1.8l17.7,0c0,4.6 1.2,7.75 3.6,9.45c2.4,1.7 6.55,2.55 12.45,2.55c8,0 12,-2.9 12,-8.7c0,-4.8 -1.4,-8 -4.2,-9.6c-1.3,-0.8 -2.95,-1.4 -4.95,-1.8l-15.15,-2.55c-13.2,-2.1 -19.8,-10.35 -19.8,-24.75c0,-8 2.925,-14.225 8.775,-18.675c5.85,-4.45 13.275,-6.675 22.275,-6.675c20.5,0 30.75,8.85 30.75,26.55l0,1.95l-16.95,0c-0.2,-4.7 -1.45,-7.9 -3.75,-9.6c-2.3,-1.7 -5.525,-2.55 -9.675,-2.55c-4.15,0 -7.275,0.825 -9.375,2.475c-2.1,1.65 -3.15,3.475 -3.15,5.475c0,5.7 2.3,8.95 6.9,9.75l18.15,3.3c12.8,2.4 19.2,11 19.2,25.8Z" style="fill-rule:nonzero;"/>
        <path d="M705.65,205.8l-23.4,-0l-22.5,-30.3l-8.55,12.15l0,18.15l-19.5,-0l0,-112.8l19.5,-0l0,71.25l27.3,-40.65l22.05,-0l-28.05,38.4l33.15,43.8Z" style="fill-rule:nonzero;"/>
        <g id="Logo">
            <path id="Box" d="M300,30l0,240c0,16.557 -13.443,30 -30,30l-240,-0c-16.557,-0 -30,-13.443 -30,-30l0,-240c0,-16.557 13.443,-30 30,-30l240,0c16.557,0 30,13.443 30,30Z" style="fill:url(#_Linear1);"/>
            <path id="Shadow" d="M300,239.188l0,30.812c0,16.557 -13.443,30 -30,30l-56.467,-0l-102.271,-102.271c8.125,7.368 17.707,13.707 28.945,17.933c20.672,7.788 47.014,8.525 80.222,-4.85l0.184,0.941c0.164,1.054 1.433,2.17 3.152,1.494l5.516,-2.149c1.893,-0.716 1.904,-2.169 1.627,-3.111l7.103,-2.773c0.798,-0.307 3.274,-2.221 1.146,-5.23l-0.021,0l-4.37,-6.672c-0.655,-0.727 -1.668,-1.003 -2.558,-0.645l-5.608,2.16c-0.665,-0.737 -1.627,-1.013 -2.569,-0.645c-1.832,0.716 -3.674,1.443 -5.505,2.159c-0.594,0.225 -0.758,0.665 -0.645,1.239l0.358,1.749c-10.336,1.116 -27.805,0.563 -43.452,-11.727c-6.918,-5.424 -13.406,-13.099 -18.82,-23.835l-50.354,25.662l-7.947,-6.453c18.154,-9.251 36.319,-18.502 54.474,-27.754c-1.177,-3.049 -2.323,-6.355 -6.243,-21.143l-58.849,26.336l-7.097,-7.096l64.186,-28.726c-0.921,-8.328 -3.437,-32.242 -3.336,-43.002l-0,-0.01c-0.016,-1.137 -0.111,-1.697 -0.51,-2.103l159.709,159.71Zm-233.137,-111.262c0.763,0.699 2.048,0.814 3.356,0.238l0.45,-0.194c0.387,1.622 0.824,3.325 1.309,5.071l-5.115,-5.115Z" style="fill:#3b808b;"/>
            <g id="Icon">
                <path d="M140.801,81.591c-0.021,-1.494 -0.174,-1.996 -0.972,-2.456c-0.758,-0.502 -1.904,-0.512 -2.999,-0.031l-73.683,31.551c-1.095,0.481 -2.128,1.443 -2.681,2.486c-0.552,1.044 -0.614,2.149 -0.184,2.937l6.151,11.298l0.081,0.133c0.666,1.055 2.17,1.331 3.705,0.655l0.45,-0.194c1.924,8.064 5.076,18.155 9.282,25.349l64.186,-28.726c-0.921,-8.33 -3.439,-32.257 -3.336,-43.012l-0,0.01Z" style="fill:#fff;fill-rule:nonzero;"/>
                <path d="M145.897,134.079l-61.811,27.662c3.633,6.887 8.115,14.194 13.58,21.235c18.154,-9.251 36.319,-18.502 54.474,-27.754c-1.177,-3.049 -2.323,-6.355 -6.243,-21.143Z" style="fill:#fff;fill-rule:nonzero;"/>
                <path d="M239.136,199.984l-4.37,-6.672c-0.655,-0.727 -1.668,-1.003 -2.558,-0.645l-5.608,2.16c-0.665,-0.737 -1.627,-1.013 -2.569,-0.645c-1.832,0.716 -3.674,1.443 -5.505,2.159c-0.594,0.225 -0.758,0.665 -0.645,1.239l0.358,1.749c-10.336,1.116 -27.805,0.563 -43.452,-11.727c-6.918,-5.424 -13.406,-13.099 -18.82,-23.835l-52.11,26.557c9.528,10.469 21.491,19.751 36.35,25.338c20.672,7.788 47.014,8.525 80.222,-4.85l0.184,0.941c0.164,1.054 1.433,2.17 3.152,1.494l5.516,-2.149c1.893,-0.716 1.904,-2.169 1.627,-3.111l7.103,-2.773c0.798,-0.307 3.274,-2.221 1.146,-5.23l-0.021,0Z" style="fill:#fff;fill-rule:nonzero;"/>
            </g>
        </g>
    </g>
    <defs>
        <linearGradient id="_Linear1" x1="0" y1="0" x2="1" y2="0" gradientUnits="userSpaceOnUse" gradientTransform="matrix(1.83697e-14,300,-300,1.83697e-14,160.554,0)"><stop offset="0" style="stop-color:#bdddeb;stop-opacity:1"/><stop offset="1" style="stop-color:#53a9d1;stop-opacity:1"/></linearGradient>
    </defs>
</svg>
