<?xml version="1.0" encoding="UTF-8" standalone="no"?><!DOCTYPE svg PUBLIC "-//W3C//DTD SVG 1.1//EN" "http://www.w3.org/Graphics/SVG/1.1/DTD/svg11.dtd"><svg width="100%" height="100%" viewBox="0 0 837 271" version="1.1" xmlns="http://www.w3.org/2000/svg" xmlns:xlink="http://www.w3.org/1999/xlink" xml:space="preserve" xmlns:serif="http://www.serif.com/" style="fill-rule:evenodd;clip-rule:evenodd;stroke-linejoin:round;stroke-miterlimit:2;"><g id="gradient-horizontal"><g><path d="M29.271,0c-16.166,-0 -29.271,13.105 -29.271,29.271l0,212.01c0,16.165 13.105,29.271 29.271,29.271l212.009,0c16.166,0 29.271,-13.106 29.271,-29.271l-0,-212.01c-0,-16.166 -13.105,-29.271 -29.271,-29.271l-212.009,-0Z" style="fill:url(#_Linear1);fill-rule:nonzero;"/><g><path d="M68.14,113.858c0.38,1.6 0.81,3.28 1.29,5l-4.98,-4.98l0.03,-0.02c0.74,0.64 1.97,0.74 3.22,0.19l0.44,-0.19Z" style="fill:#00818d;fill-rule:nonzero;"/><path d="M270.55,201.028l-0,40.25c-0,16.17 -13.1,29.27 -29.27,29.27l-45.35,-0l-88.68,-89.04c2.85,2.64 5.89,5.13 9.12,7.45c5.9,4.23 12.46,7.86 19.72,10.59c20.2,7.61 45.94,8.33 78.38,-4.73l0.18,0.91c0.16,1.04 1.4,2.12 3.08,1.46l5.39,-2.1c1.85,-0.7 1.86,-2.12 1.59,-3.04l6.93,-2.71c0.78,-0.3 3.2,-2.17 1.12,-5.11l-4.27,-6.52c-0.63,-0.71 -1.62,-0.98 -2.5,-0.63l-5.48,2.12c-0.65,-0.72 -1.6,-0.99 -2.52,-0.63c-1.79,0.7 -3.58,1.4 -5.38,2.1c-0.58,0.23 -0.73,0.66 -0.63,1.21l0.35,1.71c-10.1,1.09 -27.17,0.54 -42.46,-11.46c-6.75,-5.3 -13.1,-12.8 -18.39,-23.29l-50.16,25.56l-6.79,-6.79c17.74,-9.04 35.48,-18.08 53.23,-27.13c-1.15,-2.97 -2.28,-6.21 -6.11,-20.66l-57.52,25.74l-6.92,-6.92l62.72,-28.07c-0.91,-8.14 -3.36,-31.52 -3.26,-42.03c-0.01,-1.07 -0.1,-1.62 -0.45,-2.01l134.33,134.5Z" style="fill:#00818d;fill-rule:nonzero;"/></g><g><path d="M136.668,68.536c-0.102,10.51 2.356,33.894 3.261,42.033l-62.722,28.067c-4.11,-7.032 -7.182,-16.89 -9.067,-24.773l-0.44,0.187c-1.508,0.654 -2.978,0.383 -3.624,-0.645l-0.081,-0.128l-6.01,-11.042c-0.423,-0.77 -0.361,-1.855 0.177,-2.87c0.538,-1.016 1.552,-1.962 2.62,-2.43l72.003,-30.834c1.069,-0.467 2.19,-0.455 2.93,0.031c0.781,0.456 0.932,0.948 0.953,2.404Z" style="fill:#fff;fill-rule:nonzero;"/><path d="M141.652,119.821l-60.399,27.028c3.551,6.726 7.933,13.868 13.275,20.755l53.228,-27.122c-1.148,-2.977 -2.273,-6.21 -6.104,-20.661Z" style="fill:#fff;fill-rule:nonzero;"/><path d="M100.562,174.788l50.922,-25.95c5.285,10.487 11.632,17.991 18.388,23.289c15.288,12.004 32.354,12.551 42.458,11.457l-0.346,-1.706c-0.107,-0.551 0.05,-0.984 0.631,-1.206l5.38,-2.109c0.916,-0.355 1.866,-0.087 2.511,0.631l5.484,-2.114c0.875,-0.353 1.866,-0.087 2.503,0.627l4.268,6.521c2.076,2.941 -0.339,4.809 -1.12,5.107l-6.935,2.709c0.271,0.921 0.259,2.341 -1.587,3.041l-5.388,2.105c-1.685,0.658 -2.922,-0.424 -3.082,-1.459l-0.175,-0.918c-32.447,13.064 -58.183,12.345 -78.387,4.738c-14.521,-5.466 -26.215,-14.533 -35.525,-24.763Z" style="fill:#fff;fill-rule:nonzero;"/></g></g><g><path d="M415.788,90.054l-50.2,-0c-5.869,-0 -9.969,1.134 -12.3,3.4c-2.335,2.269 -3.5,6.2 -3.5,11.8l0,19.8l52.199,-0l-2,24.8l-50.199,-0l0,57.8l-27.801,-0l0,-113.4c0,-10.531 2.301,-18 6.901,-22.4c4.599,-4.4 12.5,-6.6 23.7,-6.6l63.2,-0l0,24.8Z" style="fill:#423c3c;fill-rule:nonzero;"/><path d="M472.986,207.654l0,-150.4l-26,-0l0,150.6l26,-0.2Z" style="fill:#423c3c;fill-rule:nonzero;"/><path d="M706.186,176.054l0,3c-0.8,10 -5.034,17.534 -12.7,22.6c-7.669,5.068 -17.235,7.599 -28.7,7.599c-16.933,0 -28.799,-3.065 -35.6,-9.199c-6.269,-5.601 -9.399,-13.866 -9.399,-24.801l-0,-2.399l23.6,0c-0,6.134 1.6,10.334 4.799,12.599c3.201,2.269 8.731,3.401 16.601,3.401c10.665,0 16,-3.866 16,-11.601c-0,-6.399 -1.87,-10.665 -5.601,-12.8c-1.734,-1.065 -3.934,-1.865 -6.6,-2.399l-20.199,-3.4c-17.601,-2.8 -26.4,-13.8 -26.4,-33c-0,-10.666 3.899,-18.966 11.699,-24.9c7.801,-5.931 17.701,-8.9 29.701,-8.9c27.33,0 41,11.8 41,35.399l-0,2.601l-22.601,0c-0.269,-6.266 -1.933,-10.531 -5,-12.8c-3.068,-2.266 -7.369,-3.4 -12.899,-3.4c-5.534,0 -9.701,1.1 -12.5,3.299c-2.801,2.201 -4.201,4.635 -4.201,7.301c0,7.6 3.066,11.934 9.201,12.999l24.199,4.401c17.067,3.2 25.601,14.669 25.601,34.4Z" style="fill:#423c3c;fill-rule:nonzero;"/><path d="M836.185,207.654l-31.2,-0l-30,-40.4l-11.4,16.2l-0,24.2l-26,-0l-0,-150.4l26,-0l-0,95l36.4,-54.2l29.4,-0l-37.4,51.2l44.2,58.4Z" style="fill:#423c3c;fill-rule:nonzero;"/><path d="M589.587,207.653l-17.4,0l-8,-13.799l-27.8,15c-15.469,0 -25.869,-5.601 -31.2,-16.8c-5.674,-11.495 -6.886,-24.46 -7,-37.5c0.077,-12.551 -0.096,-15.688 1.2,-26.601c1.063,-8.338 2.543,-13.08 6.599,-20c6.414,-10.446 16.898,-13.434 30.2,-13.7l27.401,0l26,-1.6l-0,115Zm-26,-36.4l-0,-53.6l-19.8,0c-7.335,0 -12.434,2.8 -15.301,8.401c-2.868,5.599 -4.299,13.969 -4.299,25.099c0.491,17.986 1.453,30.212 19.6,30.3l19.8,-10.2Z" style="fill:#423c3c;fill-rule:nonzero;"/></g></g><defs><linearGradient id="_Linear1" x1="0" y1="0" x2="1" y2="0" gradientUnits="userSpaceOnUse" gradientTransform="matrix(1.59482,270.547,-270.547,1.59482,134.5,3.6886)"><stop offset="0" style="stop-color:#b0deec;stop-opacity:1"/><stop offset="0.99" style="stop-color:#00abd4;stop-opacity:1"/><stop offset="1" style="stop-color:#00abd4;stop-opacity:1"/></linearGradient></defs></svg>
