<?xml version="1.0" encoding="UTF-8" standalone="no"?><!DOCTYPE svg PUBLIC "-//W3C//DTD SVG 1.1//EN" "http://www.w3.org/Graphics/SVG/1.1/DTD/svg11.dtd"><svg width="100%" height="100%" viewBox="0 0 1000 1000" version="1.1" xmlns="http://www.w3.org/2000/svg" xmlns:xlink="http://www.w3.org/1999/xlink" xml:space="preserve" xmlns:serif="http://www.serif.com/" style="fill-rule:evenodd;clip-rule:evenodd;stroke-linejoin:round;stroke-miterlimit:2;"><g><path d="M448.955,119.915c-0.579,59.76 13.398,192.715 18.542,238.988l-356.626,159.589c-23.367,-39.985 -40.836,-96.035 -51.551,-140.858l-2.503,1.065c-8.573,3.718 -16.932,2.18 -20.609,-3.664l-0.456,-0.734l-34.175,-62.778c-2.402,-4.381 -2.054,-10.547 1.006,-16.32c3.06,-5.777 8.827,-11.157 14.901,-13.815l409.395,-175.316c6.074,-2.657 12.451,-2.59 16.655,0.176c4.44,2.587 5.304,5.387 5.421,13.667Z" style="fill:#3babc3;fill-rule:nonzero;"/><path d="M477.297,411.517l-343.415,153.677c20.185,38.246 45.103,78.851 75.476,118.011l302.647,-154.214c-6.532,-16.924 -12.929,-35.311 -34.708,-117.474Z" style="fill:#3babc3;fill-rule:nonzero;"/><path d="M243.67,724.046l289.522,-147.543c30.054,59.626 66.144,102.294 104.553,132.415c86.929,68.257 183.958,71.364 241.412,65.146l-1.966,-9.7c-0.612,-3.136 0.28,-5.597 3.584,-6.859l30.59,-11.989c5.211,-2.017 10.611,-0.495 14.279,3.584l31.177,-12.015c4.981,-2.008 10.611,-0.494 14.233,3.564l24.268,37.075c11.806,16.723 -1.924,27.342 -6.368,29.035l-39.431,15.407c1.542,5.232 1.471,13.31 -9.022,17.288l-30.636,11.969c-9.584,3.739 -16.61,-2.411 -17.524,-8.292l-0.998,-5.224c-184.485,74.282 -330.818,70.194 -445.692,26.944c-82.561,-31.081 -149.05,-82.639 -201.981,-140.805Z" style="fill:#3babc3;fill-rule:nonzero;"/></g></svg>
