<?xml version="1.0" encoding="UTF-8" standalone="no"?>
<!DOCTYPE svg PUBLIC "-//W3C//DTD SVG 1.1//EN" "http://www.w3.org/Graphics/SVG/1.1/DTD/svg11.dtd">
<svg width="100%" height="100%" viewBox="0 0 460 170" version="1.1" xmlns="http://www.w3.org/2000/svg" xmlns:xlink="http://www.w3.org/1999/xlink" xml:space="preserve" xmlns:serif="http://www.serif.com/" style="fill-rule:evenodd;clip-rule:evenodd;stroke-linejoin:round;stroke-miterlimit:2;">
    <g id="Name">
        <path d="M259.452,62.225l-26.466,-0c-3.093,-0 -5.254,0.597 -6.485,1.792c-1.23,1.195 -1.845,3.269 -1.845,6.221l0,10.439l27.52,-0l-1.054,13.075l-26.466,-0l0,30.472l-14.656,-0l-0,-59.785c-0,-5.553 1.213,-9.49 3.638,-11.809c2.425,-2.32 6.59,-3.48 12.494,-3.48l33.32,0l-0,13.075Z" style="fill-rule:nonzero;"/>
        <path d="M284.336,124.224l-13.708,0.105l0,-79.396l13.708,-0l-0,79.291Z" style="fill-rule:nonzero;"/>
        <path d="M340.536,124.224l-9.174,-0l-4.217,-7.275l-14.657,7.908c-8.154,-0 -13.637,-2.953 -16.448,-8.857c-1.406,-2.882 -2.373,-5.993 -2.9,-9.332c-0.527,-3.339 -0.791,-6.818 -0.791,-10.439c0,-3.62 0.035,-6.291 0.106,-8.013c0.07,-1.722 0.246,-3.726 0.527,-6.01c0.281,-2.285 0.685,-4.2 1.212,-5.747c0.528,-1.546 1.283,-3.145 2.267,-4.797c0.985,-1.652 2.18,-2.97 3.585,-3.954c3.164,-2.179 7.276,-3.269 12.337,-3.269l14.445,0l13.708,-0.843l-0,60.628Zm-13.708,-19.19l0,-28.258l-10.438,-0c-3.866,-0 -6.555,1.476 -8.067,4.428c-1.511,2.952 -2.266,7.363 -2.266,13.233c-0,5.869 0.72,9.999 2.161,12.389c1.441,2.39 4.165,3.585 8.172,3.585l10.438,-5.377Z" style="fill-rule:nonzero;"/>
        <path d="M396.736,107.564l-0,1.582c-0.422,5.272 -2.654,9.244 -6.696,11.915c-4.042,2.671 -9.085,4.006 -15.131,4.006c-8.927,0 -15.183,-1.616 -18.768,-4.85c-3.304,-2.952 -4.956,-7.31 -4.956,-13.074l0,-1.266l12.442,0c0,3.234 0.844,5.448 2.531,6.643c1.687,1.195 4.604,1.793 8.751,1.793c5.624,-0 8.436,-2.039 8.436,-6.116c-0,-3.374 -0.985,-5.624 -2.953,-6.748c-0.914,-0.563 -2.073,-0.984 -3.479,-1.266l-10.65,-1.792c-9.279,-1.476 -13.918,-7.275 -13.918,-17.398c0,-5.623 2.056,-9.999 6.168,-13.127c4.112,-3.128 9.332,-4.692 15.658,-4.692c14.41,-0 21.616,6.221 21.616,18.663l-0,1.371l-11.915,-0c-0.141,-3.304 -1.019,-5.554 -2.636,-6.749c-1.617,-1.195 -3.884,-1.792 -6.801,-1.792c-2.917,-0 -5.114,0.58 -6.59,1.74c-1.476,1.159 -2.214,2.442 -2.214,3.848c-0,4.007 1.616,6.291 4.85,6.854l12.758,2.32c8.998,1.687 13.497,7.732 13.497,18.135Z" style="fill-rule:nonzero;"/>
        <path d="M460,124.224l-16.449,-0l-15.816,-21.299l-6.01,8.541l0,12.758l-13.707,-0l-0,-79.291l13.707,-0l0,50.084l19.19,-28.575l15.5,0l-19.717,26.993l23.302,30.789Z" style="fill-rule:nonzero;"/>
    </g>
    <g id="Icon">
        <path id="Box" d="M170,17l-0,136c-0,9.383 -7.617,17 -17,17l-136,0c-9.383,0 -17,-7.617 -17,-17l-0,-136c-0,-9.383 7.617,-17 17,-17l136,0c9.383,0 17,7.617 17,17Z" style="fill:url(#_Linear1);"/>
        <path id="Shadow" d="M170,125.885l-0,27.115c-0,9.383 -7.617,17 -17,17l-30.65,0l-53.676,-53.677c1.347,1.222 2.759,2.399 4.238,3.518c4.078,3.085 8.663,5.727 13.804,7.661c0.662,0.249 1.333,0.487 2.014,0.712c3.128,1.037 6.455,1.816 9.992,2.28c10.673,1.399 23.249,-0.075 37.999,-6.016l0.115,0.587c0.102,0.657 0.893,1.352 1.964,0.931l3.439,-1.34c1.18,-0.446 1.186,-1.352 1.014,-1.939l4.427,-1.728c0.497,-0.192 2.041,-1.385 0.714,-3.26l-0.012,-0l-2.724,-4.159c-0.409,-0.453 -1.04,-0.625 -1.595,-0.402l-3.496,1.346c-0.414,-0.459 -1.014,-0.632 -1.601,-0.402c-1.142,0.447 -2.29,0.899 -3.432,1.346c-0.37,0.14 -0.472,0.415 -0.402,0.772l0.224,1.091c-6.443,0.695 -17.332,0.35 -27.086,-7.311c-4.312,-3.381 -8.356,-8.165 -11.731,-14.856l-32.004,16.31l-4.337,-4.337c1.644,-0.838 3.288,-1.675 4.932,-2.513c1.703,-0.867 3.406,-1.735 5.109,-2.603c7.972,-4.061 15.945,-8.123 23.915,-12.184c-0.734,-1.901 -1.448,-3.961 -3.891,-13.179l-36.683,16.416l-4.424,-4.423l40.009,-17.906c-0.574,-5.191 -2.142,-20.097 -2.079,-26.805l-0,-0.006c-0.008,-0.564 -0.047,-0.9 -0.188,-1.141l83.102,83.102Zm-128.821,-52.934c0.484,0.308 1.192,0.326 1.911,0.01l0.281,-0.121c0.236,0.993 0.503,2.034 0.799,3.102l-2.991,-2.991Z" style="fill:#3b808b;"/>
        <g id="Icon1" serif:id="Icon">
            <path d="M87.086,43.93c-0.013,-0.931 -0.109,-1.244 -0.606,-1.531c-0.472,-0.312 -1.187,-0.319 -1.869,-0.019l-45.929,19.667c-0.683,0.299 -1.327,0.899 -1.671,1.55c-0.345,0.65 -0.383,1.339 -0.115,1.83l3.834,7.043l0.051,0.083c0.414,0.657 1.352,0.829 2.309,0.408l0.281,-0.121c1.199,5.027 3.163,11.316 5.785,15.801l40.009,-17.906c-0.574,-5.193 -2.143,-20.107 -2.079,-26.811l-0,0.006Z" style="fill:#fff;fill-rule:nonzero;"/>
            <path d="M90.263,76.648l-38.53,17.243c2.265,4.293 5.059,8.847 8.465,13.236c11.317,-5.767 22.639,-11.533 33.956,-17.3c-0.734,-1.901 -1.448,-3.961 -3.891,-13.179Z" style="fill:#fff;fill-rule:nonzero;"/>
            <path d="M148.382,117.729l-2.724,-4.159c-0.409,-0.453 -1.04,-0.625 -1.595,-0.402l-3.496,1.346c-0.414,-0.459 -1.014,-0.632 -1.601,-0.402c-1.142,0.447 -2.29,0.899 -3.432,1.346c-0.37,0.14 -0.472,0.415 -0.402,0.772l0.224,1.091c-6.443,0.695 -17.332,0.35 -27.086,-7.311c-4.312,-3.381 -8.356,-8.165 -11.731,-14.856l-32.481,16.553c5.938,6.526 13.395,12.312 22.658,15.795c12.885,4.854 29.305,5.313 50.005,-3.024l0.115,0.587c0.102,0.657 0.893,1.352 1.964,0.931l3.439,-1.34c1.18,-0.446 1.186,-1.352 1.014,-1.939l4.427,-1.728c0.497,-0.192 2.041,-1.385 0.714,-3.26l-0.012,-0Z" style="fill:#fff;fill-rule:nonzero;"/>
        </g>
    </g>
    <defs>
        <linearGradient id="_Linear1" x1="0" y1="0" x2="1" y2="0" gradientUnits="userSpaceOnUse" gradientTransform="matrix(1.04095e-14,170,-170,1.04095e-14,90.9806,0)"><stop offset="0" style="stop-color:#bdddeb;stop-opacity:1"/><stop offset="1" style="stop-color:#53a9d1;stop-opacity:1"/></linearGradient>
    </defs>
</svg>
