<?xml version="1.0" encoding="UTF-8" standalone="no"?>
<!DOCTYPE svg PUBLIC "-//W3C//DTD SVG 1.1//EN" "http://www.w3.org/Graphics/SVG/1.1/DTD/svg11.dtd">
<svg width="100%" height="100%" viewBox="0 0 250 371" version="1.1" xmlns="http://www.w3.org/2000/svg" xmlns:xlink="http://www.w3.org/1999/xlink" xml:space="preserve" xmlns:serif="http://www.serif.com/" style="fill-rule:evenodd;clip-rule:evenodd;stroke-linejoin:round;stroke-miterlimit:2;">
    <g id="Name">
        <path d="M49.452,307.292l-26.466,0c-3.093,0 -5.254,0.598 -6.485,1.793c-1.23,1.195 -1.845,3.268 -1.845,6.221l0,10.438l27.52,0l-1.054,13.075l-26.466,0l0,30.472l-14.656,0l0,-59.784c0,-5.554 1.213,-9.49 3.638,-11.81c2.425,-2.32 6.59,-3.479 12.494,-3.479l33.32,-0l-0,13.074Z" style="fill-rule:nonzero;"/>
        <path d="M74.336,369.291l-13.708,0.106l0,-79.397l13.708,0l-0,79.291Z" style="fill-rule:nonzero;"/>
        <path d="M130.536,369.291l-9.174,0l-4.217,-7.275l-14.657,7.908c-8.154,0 -13.637,-2.952 -16.448,-8.857c-1.406,-2.882 -2.373,-5.992 -2.9,-9.331c-0.527,-3.339 -0.791,-6.819 -0.791,-10.439c0,-3.62 0.035,-6.291 0.106,-8.014c0.07,-1.722 0.246,-3.725 0.527,-6.01c0.281,-2.284 0.685,-4.2 1.212,-5.746c0.528,-1.547 1.283,-3.146 2.267,-4.798c0.985,-1.652 2.18,-2.97 3.585,-3.954c3.164,-2.179 7.276,-3.268 12.337,-3.268l14.445,-0l13.708,-0.844l-0,60.628Zm-13.708,-19.19l0,-28.258l-10.438,0c-3.866,0 -6.555,1.476 -8.067,4.429c-1.511,2.952 -2.266,7.363 -2.266,13.232c-0,5.87 0.72,10 2.161,12.39c1.441,2.39 4.165,3.585 8.172,3.585l10.438,-5.378Z" style="fill-rule:nonzero;"/>
        <path d="M186.736,352.632l-0,1.581c-0.422,5.272 -2.654,9.244 -6.696,11.915c-4.042,2.671 -9.085,4.007 -15.131,4.007c-8.927,-0 -15.183,-1.617 -18.768,-4.85c-3.304,-2.953 -4.956,-7.311 -4.956,-13.075l0,-1.265l12.442,-0c0,3.233 0.844,5.448 2.531,6.643c1.687,1.195 4.604,1.792 8.751,1.792c5.624,0 8.436,-2.039 8.436,-6.116c-0,-3.374 -0.985,-5.623 -2.953,-6.748c-0.914,-0.562 -2.073,-0.984 -3.479,-1.265l-10.65,-1.793c-9.279,-1.476 -13.918,-7.275 -13.918,-17.397c0,-5.624 2.056,-10 6.168,-13.128c4.112,-3.128 9.332,-4.692 15.658,-4.692c14.41,0 21.616,6.221 21.616,18.663l-0,1.371l-11.915,-0c-0.141,-3.304 -1.019,-5.553 -2.636,-6.748c-1.617,-1.195 -3.884,-1.793 -6.801,-1.793c-2.917,0 -5.114,0.58 -6.59,1.74c-1.476,1.16 -2.214,2.443 -2.214,3.849c-0,4.006 1.616,6.291 4.85,6.853l12.758,2.32c8.998,1.687 13.497,7.732 13.497,18.136Z" style="fill-rule:nonzero;"/>
        <path d="M250,369.291l-16.449,0l-15.816,-21.299l-6.01,8.541l0,12.758l-13.707,0l-0,-79.291l13.707,0l0,50.084l19.19,-28.574l15.5,-0l-19.717,26.993l23.302,30.788Z" style="fill-rule:nonzero;"/>
    </g>
    <g id="Icon">
        <path id="Box" d="M250,25l-0,200c-0,13.798 -11.202,25 -25,25l-200,-0c-13.798,-0 -25,-11.202 -25,-25l0,-200c0,-13.798 11.202,-25 25,-25l200,0c13.798,0 25,11.202 25,25Z" style="fill:url(#_Linear1);"/>
        <path id="Shadow" d="M250,185.125l-0,39.875c-0,13.798 -11.202,25 -25,25l-45.073,-0l-78.936,-78.937c1.982,1.798 4.058,3.528 6.233,5.174c5.997,4.536 12.739,8.422 20.299,11.265c0.974,0.367 1.961,0.717 2.962,1.048c4.6,1.525 9.493,2.671 14.694,3.353c15.696,2.058 34.19,-0.111 55.881,-8.847l0.169,0.863c0.15,0.966 1.313,1.989 2.889,1.369l5.056,-1.97c1.736,-0.656 1.745,-1.988 1.492,-2.851l6.51,-2.543c0.732,-0.281 3.002,-2.035 1.051,-4.793l-0.019,-0l-4.005,-6.117c-0.601,-0.666 -1.53,-0.919 -2.346,-0.591l-5.14,1.98c-0.61,-0.676 -1.492,-0.929 -2.355,-0.591c-1.679,0.656 -3.368,1.322 -5.047,1.979c-0.544,0.207 -0.694,0.61 -0.591,1.135l0.328,1.604c-9.474,1.023 -25.487,0.516 -39.831,-10.75c-6.341,-4.972 -12.289,-12.008 -17.251,-21.848l-47.065,23.985l-6.378,-6.377c2.417,-1.232 4.835,-2.464 7.252,-3.696c2.504,-1.276 5.009,-2.552 7.514,-3.828c11.723,-5.972 23.448,-11.945 35.168,-17.917c-1.078,-2.796 -2.129,-5.826 -5.722,-19.381l-53.945,24.141l-6.505,-6.505l58.836,-26.332c-0.844,-7.634 -3.15,-29.555 -3.058,-39.419l0,-0.009c-0.011,-0.829 -0.069,-1.323 -0.276,-1.678l122.209,122.209Zm-189.443,-77.844c0.712,0.453 1.753,0.48 2.81,0.015l0.413,-0.179c0.348,1.46 0.741,2.992 1.175,4.562l-4.398,-4.398Z" style="fill:#3b808b;"/>
        <g id="Icon1" serif:id="Icon">
            <path d="M128.067,64.603c-0.018,-1.369 -0.159,-1.829 -0.891,-2.251c-0.694,-0.46 -1.745,-0.469 -2.748,-0.028l-67.543,28.921c-1.004,0.441 -1.951,1.323 -2.458,2.28c-0.506,0.956 -0.562,1.97 -0.168,2.692l5.637,10.356l0.076,0.122c0.609,0.967 1.988,1.22 3.395,0.601l0.413,-0.179c1.764,7.393 4.653,16.642 8.509,23.237l58.836,-26.332c-0.844,-7.636 -3.151,-29.569 -3.058,-39.428l0,0.009Z" style="fill:#fff;fill-rule:nonzero;"/>
            <path d="M132.739,112.718l-56.661,25.356c3.331,6.314 7.44,13.012 12.449,19.466c16.642,-8.481 33.293,-16.961 49.934,-25.441c-1.078,-2.796 -2.129,-5.826 -5.722,-19.381Z" style="fill:#fff;fill-rule:nonzero;"/>
            <path d="M218.208,173.131l-4.005,-6.117c-0.601,-0.666 -1.53,-0.919 -2.346,-0.591l-5.14,1.98c-0.61,-0.676 -1.492,-0.929 -2.355,-0.591c-1.679,0.656 -3.368,1.322 -5.047,1.979c-0.544,0.207 -0.694,0.61 -0.591,1.135l0.328,1.604c-9.474,1.023 -25.487,0.516 -39.831,-10.75c-6.341,-4.972 -12.289,-12.008 -17.251,-21.848l-47.768,24.343c8.734,9.597 19.7,18.105 33.321,23.227c18.95,7.139 43.096,7.815 73.537,-4.446l0.169,0.863c0.15,0.966 1.313,1.989 2.889,1.369l5.056,-1.97c1.736,-0.656 1.745,-1.988 1.492,-2.851l6.51,-2.543c0.732,-0.281 3.002,-2.035 1.051,-4.793l-0.019,-0Z" style="fill:#fff;fill-rule:nonzero;"/>
        </g>
    </g>
    <defs>
        <linearGradient id="_Linear1" x1="0" y1="0" x2="1" y2="0" gradientUnits="userSpaceOnUse" gradientTransform="matrix(1.53081e-14,250,-250,1.53081e-14,133.795,0)"><stop offset="0" style="stop-color:#bdddeb;stop-opacity:1"/><stop offset="1" style="stop-color:#53a9d1;stop-opacity:1"/></linearGradient>
    </defs>
</svg>
