<?xml version="1.0" encoding="UTF-8" standalone="no"?><!DOCTYPE svg PUBLIC "-//W3C//DTD SVG 1.1//EN" "http://www.w3.org/Graphics/SVG/1.1/DTD/svg11.dtd"><svg width="100%" height="100%" viewBox="0 0 955 955" version="1.1" xmlns="http://www.w3.org/2000/svg" xmlns:xlink="http://www.w3.org/1999/xlink" xml:space="preserve" xmlns:serif="http://www.serif.com/" style="fill-rule:evenodd;clip-rule:evenodd;stroke-linejoin:round;stroke-miterlimit:2;"><g><path d="M411,100.5c-3.5,0.9 -384.3,163.8 -393,167.8c-6.3,2.8 -11.7,7.5 -15.1,13.2c-1.8,3 -2.3,5.4 -2.3,9.8c0,3.2 0.4,6.2 1,6.5c0.5,0.4 2.7,4.1 4.8,8.2c5.5,10.5 16,29.8 25.4,46.7c4.6,8.4 6.2,9.7 12.9,10.7c1.8,0.2 5.3,-0.2 7.7,-0.9c4.9,-1.5 4.8,-1.6 6.2,4.7c0.3,1.3 0.7,3.2 0.9,4.3c0.3,1.1 0.7,2.9 0.9,4c2.9,13 15.8,53.3 23.1,72c7,17.8 21.3,47.5 22.9,47.5c0.2,0 320,-143.3 327.2,-146.5c14.5,-6.4 13.3,-4.8 12,-15.5c-0.8,-6.3 -1.5,-12.4 -2.1,-18.4c-1.5,-15.3 -2.6,-25.8 -3,-29.1c-0.2,-1.7 -0.7,-6.6 -1,-11c-0.4,-4.4 -0.8,-9.1 -1,-10.5c-0.2,-1.4 -0.7,-6.1 -1.1,-10.5c-0.4,-4.4 -0.8,-9.4 -1,-11c-0.1,-1.7 -0.5,-6.8 -0.9,-11.5c-0.4,-4.7 -0.8,-9.6 -1,-11c-0.2,-1.4 -0.7,-6.8 -1,-12c-0.4,-5.2 -0.8,-11.1 -1,-13c-0.2,-1.9 -0.7,-8.9 -1,-15.5c-0.4,-6.6 -0.8,-13.6 -1,-15.5c-0.5,-4 -1.6,-36.1 -1.9,-49.3c-0.1,-8.7 -0.2,-8.9 -3.4,-11.8c-1.8,-1.6 -4,-2.9 -5,-3c-0.9,-0 -2.4,-0.2 -3.2,-0.3c-0.8,-0.2 -3.5,0.2 -6,0.9Z" style="fill:#3babc3;fill-rule:nonzero;"/><path d="M455.2,393c-0.4,0.1 -326.8,146.3 -327,146.5c-0.6,0.6 18.3,33.9 28.6,50.5c12.5,20.1 30.3,45.8 40.9,59.4l2.3,2.9c0,0 287.3,-146.3 288.3,-147.2c0.4,-0.4 -0.4,-3.6 -1.8,-7.2c-2.2,-5.5 -13,-39.5 -14,-43.9c-0.2,-0.8 -2.2,-8.3 -4.5,-16.5c-4.2,-14.8 -5.6,-20.2 -6.5,-23.9c-0.2,-1 -1.1,-4.2 -1.9,-7c-0.8,-2.8 -2,-7 -2.6,-9.4c-0.6,-2.3 -1.4,-4.2 -1.8,-4.2Z" style="fill:#3babc3;fill-rule:nonzero;"/><path d="M509.2,550.9c-0.4,-0.4 -276.1,139.9 -276.2,140.4c0,1.1 33,34.1 43.5,43.3c17.2,15.2 52.7,42.4 55.3,42.4c0.5,0 1.7,0.9 2.7,2c1,1.1 2.4,2 3.2,2c0.7,0 1.3,0.3 1.3,0.8c0,0.4 0.9,1.2 1.9,1.7c1.1,0.6 6.6,3.8 12.3,7.1c11.1,6.7 14.6,8.6 22.3,12.7c7,3.6 28.2,13.7 28.9,13.7c0.3,0 3,1.1 6,2.5c19.1,8.7 59.3,21.1 84.3,26c14.3,2.7 17.8,3.4 22.3,4c2.5,0.4 5.6,0.8 7,1c1.4,0.3 5,0.7 8,1c3,0.3 6.9,0.8 8.5,1c3.3,0.4 16.1,1.5 24,2c7.8,0.6 44,0.6 54,0c15.4,-0.7 38.8,-2.8 45.5,-4c1.4,-0.2 4.8,-0.7 7.5,-1c2.8,-0.3 5.7,-0.7 6.5,-1c0.8,-0.2 3.8,-0.6 6.5,-1c2.8,-0.3 9.7,-1.5 15.5,-2.7c5.8,-1.1 11.6,-2.2 12.9,-2.4c3,-0.6 13.3,-3 24.1,-5.6c4.7,-1.1 9.4,-2.2 10.4,-2.4c2.2,-0.4 23.4,-6.4 25.6,-7.2c1.9,-0.7 1.6,-0.6 7,-2.1c8.8,-2.5 37.2,-12.3 53.7,-18.6c18.6,-7 16.9,-7 18.7,0.5c0.8,3.2 4.4,5.8 9.1,6.6c2.9,0.4 6.9,-0.8 20.8,-6.2c9.5,-3.7 18.2,-7.4 19.5,-8.2c3.2,-2 5.2,-6.3 5.2,-10.9c-0,-3.6 0.3,-4 3.8,-5.2c2,-0.7 4.6,-1.6 5.7,-2.1c1.1,-0.5 8,-3.2 15.4,-6.1c17.3,-6.7 22.1,-10.8 22.5,-19.4c0.3,-5.6 -1.9,-10 -15.2,-30.2c-11.9,-17.9 -13.8,-20.3 -17.3,-21.7c-3.7,-1.5 -4.3,-1.5 -10.2,0.4c-3.4,1.2 -7.1,2.5 -8.2,3c-2.2,1 -9.7,3.9 -16.2,6.4c-2.4,0.9 -4.3,1.2 -4.3,0.7c0,-1.3 -5.7,-3.4 -9,-3.3c-3.1,0.1 -32.4,11.3 -35.5,13.6c-1.7,1.3 -1.8,1.9 -0.7,7.7c0.6,3.4 1,6.4 0.9,6.5c-0.8,0.8 -22.6,1.8 -38.2,1.8c-16.3,0 -35.7,-0.9 -39.5,-1.9c-0.8,-0.2 -3.7,-0.7 -6.5,-1c-10.5,-1.4 -14.3,-2.1 -24,-4.2c-3.8,-0.8 -7.7,-1.6 -8.5,-1.8c-3.1,-0.6 -17.6,-4.7 -19.5,-5.5c-1.1,-0.5 -4.5,-1.6 -7.5,-2.6c-8.1,-2.5 -29.9,-11.9 -40.9,-17.7c-27.2,-14.2 -49.6,-31 -73.1,-54.6c-26.8,-26.9 -48,-55.7 -66.4,-90.6c-2.6,-5 -5.1,-9.3 -5.4,-9.6Z" style="fill:#3babc3;fill-rule:nonzero;"/></g></svg>
